<mxfile host="65bd71144e">
    <diagram id="RcOdOprhYzqiFKZp-Y12" name="Page-1">
        <mxGraphModel dx="1130" dy="576" grid="1" gridSize="10" guides="1" tooltips="1" connect="1" arrows="1" fold="1" page="1" pageScale="1" pageWidth="850" pageHeight="1100" math="0" shadow="0">
            <root>
                <mxCell id="0"/>
                <mxCell id="1" parent="0"/>
                <mxCell id="2" value="animal" style="shape=table;startSize=30;container=1;collapsible=0;childLayout=tableLayout;fontStyle=1;align=center;" vertex="1" parent="1">
                    <mxGeometry x="190" y="120" width="460" height="508" as="geometry"/>
                </mxCell>
                <mxCell id="3" value="" style="shape=tableRow;horizontal=0;startSize=0;swimlaneHead=0;swimlaneBody=0;top=0;left=0;bottom=0;right=0;collapsible=0;dropTarget=0;fillColor=none;points=[[0,0.5],[1,0.5]];portConstraint=eastwest;" vertex="1" parent="2">
                    <mxGeometry y="30" width="460" height="53" as="geometry"/>
                </mxCell>
                <mxCell id="15" value="nom" style="shape=partialRectangle;html=1;whiteSpace=wrap;connectable=0;fillColor=none;top=0;left=0;bottom=0;right=0;overflow=hidden;" vertex="1" parent="3">
                    <mxGeometry width="115" height="53" as="geometry">
                        <mxRectangle width="115" height="53" as="alternateBounds"/>
                    </mxGeometry>
                </mxCell>
                <mxCell id="4" value="taille" style="shape=partialRectangle;html=1;whiteSpace=wrap;connectable=0;fillColor=none;top=0;left=0;bottom=0;right=0;overflow=hidden;" vertex="1" parent="3">
                    <mxGeometry x="115" width="114" height="53" as="geometry">
                        <mxRectangle width="114" height="53" as="alternateBounds"/>
                    </mxGeometry>
                </mxCell>
                <mxCell id="5" value="classe" style="shape=partialRectangle;html=1;whiteSpace=wrap;connectable=0;fillColor=none;top=0;left=0;bottom=0;right=0;overflow=hidden;" vertex="1" parent="3">
                    <mxGeometry x="229" width="116" height="53" as="geometry">
                        <mxRectangle width="116" height="53" as="alternateBounds"/>
                    </mxGeometry>
                </mxCell>
                <mxCell id="6" value="regime_alimentaire" style="shape=partialRectangle;html=1;whiteSpace=wrap;connectable=0;fillColor=none;top=0;left=0;bottom=0;right=0;overflow=hidden;" vertex="1" parent="3">
                    <mxGeometry x="345" width="115" height="53" as="geometry">
                        <mxRectangle width="115" height="53" as="alternateBounds"/>
                    </mxGeometry>
                </mxCell>
                <mxCell id="7" value="" style="shape=tableRow;horizontal=0;startSize=0;swimlaneHead=0;swimlaneBody=0;top=0;left=0;bottom=0;right=0;collapsible=0;dropTarget=0;fillColor=none;points=[[0,0.5],[1,0.5]];portConstraint=eastwest;" vertex="1" parent="2">
                    <mxGeometry y="83" width="460" height="54" as="geometry"/>
                </mxCell>
                <mxCell id="16" value="être humain" style="shape=partialRectangle;html=1;whiteSpace=wrap;connectable=0;fillColor=none;top=0;left=0;bottom=0;right=0;overflow=hidden;" vertex="1" parent="7">
                    <mxGeometry width="115" height="54" as="geometry">
                        <mxRectangle width="115" height="54" as="alternateBounds"/>
                    </mxGeometry>
                </mxCell>
                <mxCell id="8" value="moyen" style="shape=partialRectangle;html=1;whiteSpace=wrap;connectable=0;fillColor=none;top=0;left=0;bottom=0;right=0;overflow=hidden;" vertex="1" parent="7">
                    <mxGeometry x="115" width="114" height="54" as="geometry">
                        <mxRectangle width="114" height="54" as="alternateBounds"/>
                    </mxGeometry>
                </mxCell>
                <mxCell id="9" value="mammifère" style="shape=partialRectangle;html=1;whiteSpace=wrap;connectable=0;fillColor=none;top=0;left=0;bottom=0;right=0;overflow=hidden;" vertex="1" parent="7">
                    <mxGeometry x="229" width="116" height="54" as="geometry">
                        <mxRectangle width="116" height="54" as="alternateBounds"/>
                    </mxGeometry>
                </mxCell>
                <mxCell id="10" value="omnivore" style="shape=partialRectangle;html=1;whiteSpace=wrap;connectable=0;fillColor=none;top=0;left=0;bottom=0;right=0;overflow=hidden;" vertex="1" parent="7">
                    <mxGeometry x="345" width="115" height="54" as="geometry">
                        <mxRectangle width="115" height="54" as="alternateBounds"/>
                    </mxGeometry>
                </mxCell>
                <mxCell id="11" value="" style="shape=tableRow;horizontal=0;startSize=0;swimlaneHead=0;swimlaneBody=0;top=0;left=0;bottom=0;right=0;collapsible=0;dropTarget=0;fillColor=none;points=[[0,0.5],[1,0.5]];portConstraint=eastwest;" vertex="1" parent="2">
                    <mxGeometry y="137" width="460" height="53" as="geometry"/>
                </mxCell>
                <mxCell id="17" value="chat" style="shape=partialRectangle;html=1;whiteSpace=wrap;connectable=0;fillColor=none;top=0;left=0;bottom=0;right=0;overflow=hidden;" vertex="1" parent="11">
                    <mxGeometry width="115" height="53" as="geometry">
                        <mxRectangle width="115" height="53" as="alternateBounds"/>
                    </mxGeometry>
                </mxCell>
                <mxCell id="12" value="petit" style="shape=partialRectangle;html=1;whiteSpace=wrap;connectable=0;fillColor=none;top=0;left=0;bottom=0;right=0;overflow=hidden;" vertex="1" parent="11">
                    <mxGeometry x="115" width="114" height="53" as="geometry">
                        <mxRectangle width="114" height="53" as="alternateBounds"/>
                    </mxGeometry>
                </mxCell>
                <mxCell id="13" value="mammifère" style="shape=partialRectangle;html=1;whiteSpace=wrap;connectable=0;fillColor=none;top=0;left=0;bottom=0;right=0;overflow=hidden;" vertex="1" parent="11">
                    <mxGeometry x="229" width="116" height="53" as="geometry">
                        <mxRectangle width="116" height="53" as="alternateBounds"/>
                    </mxGeometry>
                </mxCell>
                <mxCell id="14" value="carnivore" style="shape=partialRectangle;html=1;whiteSpace=wrap;connectable=0;fillColor=none;top=0;left=0;bottom=0;right=0;overflow=hidden;" vertex="1" parent="11">
                    <mxGeometry x="345" width="115" height="53" as="geometry">
                        <mxRectangle width="115" height="53" as="alternateBounds"/>
                    </mxGeometry>
                </mxCell>
                <mxCell id="18" style="shape=tableRow;horizontal=0;startSize=0;swimlaneHead=0;swimlaneBody=0;top=0;left=0;bottom=0;right=0;collapsible=0;dropTarget=0;fillColor=none;points=[[0,0.5],[1,0.5]];portConstraint=eastwest;" vertex="1" parent="2">
                    <mxGeometry y="190" width="460" height="53" as="geometry"/>
                </mxCell>
                <mxCell id="19" value="pigeon" style="shape=partialRectangle;html=1;whiteSpace=wrap;connectable=0;fillColor=none;top=0;left=0;bottom=0;right=0;overflow=hidden;" vertex="1" parent="18">
                    <mxGeometry width="115" height="53" as="geometry">
                        <mxRectangle width="115" height="53" as="alternateBounds"/>
                    </mxGeometry>
                </mxCell>
                <mxCell id="20" value="petit" style="shape=partialRectangle;html=1;whiteSpace=wrap;connectable=0;fillColor=none;top=0;left=0;bottom=0;right=0;overflow=hidden;" vertex="1" parent="18">
                    <mxGeometry x="115" width="114" height="53" as="geometry">
                        <mxRectangle width="114" height="53" as="alternateBounds"/>
                    </mxGeometry>
                </mxCell>
                <mxCell id="21" value="oiseau" style="shape=partialRectangle;html=1;whiteSpace=wrap;connectable=0;fillColor=none;top=0;left=0;bottom=0;right=0;overflow=hidden;" vertex="1" parent="18">
                    <mxGeometry x="229" width="116" height="53" as="geometry">
                        <mxRectangle width="116" height="53" as="alternateBounds"/>
                    </mxGeometry>
                </mxCell>
                <mxCell id="22" value="herbivore" style="shape=partialRectangle;html=1;whiteSpace=wrap;connectable=0;fillColor=none;top=0;left=0;bottom=0;right=0;overflow=hidden;" vertex="1" parent="18">
                    <mxGeometry x="345" width="115" height="53" as="geometry">
                        <mxRectangle width="115" height="53" as="alternateBounds"/>
                    </mxGeometry>
                </mxCell>
                <mxCell id="23" style="shape=tableRow;horizontal=0;startSize=0;swimlaneHead=0;swimlaneBody=0;top=0;left=0;bottom=0;right=0;collapsible=0;dropTarget=0;fillColor=none;points=[[0,0.5],[1,0.5]];portConstraint=eastwest;" vertex="1" parent="2">
                    <mxGeometry y="243" width="460" height="53" as="geometry"/>
                </mxCell>
                <mxCell id="24" value="baleine" style="shape=partialRectangle;html=1;whiteSpace=wrap;connectable=0;fillColor=none;top=0;left=0;bottom=0;right=0;overflow=hidden;" vertex="1" parent="23">
                    <mxGeometry width="115" height="53" as="geometry">
                        <mxRectangle width="115" height="53" as="alternateBounds"/>
                    </mxGeometry>
                </mxCell>
                <mxCell id="25" value="gros" style="shape=partialRectangle;html=1;whiteSpace=wrap;connectable=0;fillColor=none;top=0;left=0;bottom=0;right=0;overflow=hidden;" vertex="1" parent="23">
                    <mxGeometry x="115" width="114" height="53" as="geometry">
                        <mxRectangle width="114" height="53" as="alternateBounds"/>
                    </mxGeometry>
                </mxCell>
                <mxCell id="26" value="mammifère" style="shape=partialRectangle;html=1;whiteSpace=wrap;connectable=0;fillColor=none;top=0;left=0;bottom=0;right=0;overflow=hidden;" vertex="1" parent="23">
                    <mxGeometry x="229" width="116" height="53" as="geometry">
                        <mxRectangle width="116" height="53" as="alternateBounds"/>
                    </mxGeometry>
                </mxCell>
                <mxCell id="27" value="omnivore" style="shape=partialRectangle;html=1;whiteSpace=wrap;connectable=0;fillColor=none;top=0;left=0;bottom=0;right=0;overflow=hidden;" vertex="1" parent="23">
                    <mxGeometry x="345" width="115" height="53" as="geometry">
                        <mxRectangle width="115" height="53" as="alternateBounds"/>
                    </mxGeometry>
                </mxCell>
                <mxCell id="28" style="shape=tableRow;horizontal=0;startSize=0;swimlaneHead=0;swimlaneBody=0;top=0;left=0;bottom=0;right=0;collapsible=0;dropTarget=0;fillColor=none;points=[[0,0.5],[1,0.5]];portConstraint=eastwest;" vertex="1" parent="2">
                    <mxGeometry y="296" width="460" height="53" as="geometry"/>
                </mxCell>
                <mxCell id="29" value="autruche" style="shape=partialRectangle;html=1;whiteSpace=wrap;connectable=0;fillColor=none;top=0;left=0;bottom=0;right=0;overflow=hidden;" vertex="1" parent="28">
                    <mxGeometry width="115" height="53" as="geometry">
                        <mxRectangle width="115" height="53" as="alternateBounds"/>
                    </mxGeometry>
                </mxCell>
                <mxCell id="30" value="moyen" style="shape=partialRectangle;html=1;whiteSpace=wrap;connectable=0;fillColor=none;top=0;left=0;bottom=0;right=0;overflow=hidden;" vertex="1" parent="28">
                    <mxGeometry x="115" width="114" height="53" as="geometry">
                        <mxRectangle width="114" height="53" as="alternateBounds"/>
                    </mxGeometry>
                </mxCell>
                <mxCell id="31" value="oiseau" style="shape=partialRectangle;html=1;whiteSpace=wrap;connectable=0;fillColor=none;top=0;left=0;bottom=0;right=0;overflow=hidden;" vertex="1" parent="28">
                    <mxGeometry x="229" width="116" height="53" as="geometry">
                        <mxRectangle width="116" height="53" as="alternateBounds"/>
                    </mxGeometry>
                </mxCell>
                <mxCell id="32" value="herbivore" style="shape=partialRectangle;html=1;whiteSpace=wrap;connectable=0;fillColor=none;top=0;left=0;bottom=0;right=0;overflow=hidden;" vertex="1" parent="28">
                    <mxGeometry x="345" width="115" height="53" as="geometry">
                        <mxRectangle width="115" height="53" as="alternateBounds"/>
                    </mxGeometry>
                </mxCell>
                <mxCell id="33" style="shape=tableRow;horizontal=0;startSize=0;swimlaneHead=0;swimlaneBody=0;top=0;left=0;bottom=0;right=0;collapsible=0;dropTarget=0;fillColor=none;points=[[0,0.5],[1,0.5]];portConstraint=eastwest;" vertex="1" parent="2">
                    <mxGeometry y="349" width="460" height="53" as="geometry"/>
                </mxCell>
                <mxCell id="34" value="cheval" style="shape=partialRectangle;html=1;whiteSpace=wrap;connectable=0;fillColor=none;top=0;left=0;bottom=0;right=0;overflow=hidden;" vertex="1" parent="33">
                    <mxGeometry width="115" height="53" as="geometry">
                        <mxRectangle width="115" height="53" as="alternateBounds"/>
                    </mxGeometry>
                </mxCell>
                <mxCell id="35" value="gros" style="shape=partialRectangle;html=1;whiteSpace=wrap;connectable=0;fillColor=none;top=0;left=0;bottom=0;right=0;overflow=hidden;" vertex="1" parent="33">
                    <mxGeometry x="115" width="114" height="53" as="geometry">
                        <mxRectangle width="114" height="53" as="alternateBounds"/>
                    </mxGeometry>
                </mxCell>
                <mxCell id="36" value="mammifère" style="shape=partialRectangle;html=1;whiteSpace=wrap;connectable=0;fillColor=none;top=0;left=0;bottom=0;right=0;overflow=hidden;" vertex="1" parent="33">
                    <mxGeometry x="229" width="116" height="53" as="geometry">
                        <mxRectangle width="116" height="53" as="alternateBounds"/>
                    </mxGeometry>
                </mxCell>
                <mxCell id="37" value="herbivore" style="shape=partialRectangle;html=1;whiteSpace=wrap;connectable=0;fillColor=none;top=0;left=0;bottom=0;right=0;overflow=hidden;" vertex="1" parent="33">
                    <mxGeometry x="345" width="115" height="53" as="geometry">
                        <mxRectangle width="115" height="53" as="alternateBounds"/>
                    </mxGeometry>
                </mxCell>
                <mxCell id="38" style="shape=tableRow;horizontal=0;startSize=0;swimlaneHead=0;swimlaneBody=0;top=0;left=0;bottom=0;right=0;collapsible=0;dropTarget=0;fillColor=none;points=[[0,0.5],[1,0.5]];portConstraint=eastwest;" vertex="1" parent="2">
                    <mxGeometry y="402" width="460" height="53" as="geometry"/>
                </mxCell>
                <mxCell id="39" value="éléphant" style="shape=partialRectangle;html=1;whiteSpace=wrap;connectable=0;fillColor=none;top=0;left=0;bottom=0;right=0;overflow=hidden;" vertex="1" parent="38">
                    <mxGeometry width="115" height="53" as="geometry">
                        <mxRectangle width="115" height="53" as="alternateBounds"/>
                    </mxGeometry>
                </mxCell>
                <mxCell id="40" value="gros" style="shape=partialRectangle;html=1;whiteSpace=wrap;connectable=0;fillColor=none;top=0;left=0;bottom=0;right=0;overflow=hidden;" vertex="1" parent="38">
                    <mxGeometry x="115" width="114" height="53" as="geometry">
                        <mxRectangle width="114" height="53" as="alternateBounds"/>
                    </mxGeometry>
                </mxCell>
                <mxCell id="41" value="mammifère" style="shape=partialRectangle;html=1;whiteSpace=wrap;connectable=0;fillColor=none;top=0;left=0;bottom=0;right=0;overflow=hidden;" vertex="1" parent="38">
                    <mxGeometry x="229" width="116" height="53" as="geometry">
                        <mxRectangle width="116" height="53" as="alternateBounds"/>
                    </mxGeometry>
                </mxCell>
                <mxCell id="42" value="carnivore" style="shape=partialRectangle;html=1;whiteSpace=wrap;connectable=0;fillColor=none;top=0;left=0;bottom=0;right=0;overflow=hidden;" vertex="1" parent="38">
                    <mxGeometry x="345" width="115" height="53" as="geometry">
                        <mxRectangle width="115" height="53" as="alternateBounds"/>
                    </mxGeometry>
                </mxCell>
                <mxCell id="43" style="shape=tableRow;horizontal=0;startSize=0;swimlaneHead=0;swimlaneBody=0;top=0;left=0;bottom=0;right=0;collapsible=0;dropTarget=0;fillColor=none;points=[[0,0.5],[1,0.5]];portConstraint=eastwest;" vertex="1" parent="2">
                    <mxGeometry y="455" width="460" height="53" as="geometry"/>
                </mxCell>
                <mxCell id="44" value="chien" style="shape=partialRectangle;html=1;whiteSpace=wrap;connectable=0;fillColor=none;top=0;left=0;bottom=0;right=0;overflow=hidden;" vertex="1" parent="43">
                    <mxGeometry width="115" height="53" as="geometry">
                        <mxRectangle width="115" height="53" as="alternateBounds"/>
                    </mxGeometry>
                </mxCell>
                <mxCell id="45" value="petit" style="shape=partialRectangle;html=1;whiteSpace=wrap;connectable=0;fillColor=none;top=0;left=0;bottom=0;right=0;overflow=hidden;" vertex="1" parent="43">
                    <mxGeometry x="115" width="114" height="53" as="geometry">
                        <mxRectangle width="114" height="53" as="alternateBounds"/>
                    </mxGeometry>
                </mxCell>
                <mxCell id="46" value="mammifère" style="shape=partialRectangle;html=1;whiteSpace=wrap;connectable=0;fillColor=none;top=0;left=0;bottom=0;right=0;overflow=hidden;" vertex="1" parent="43">
                    <mxGeometry x="229" width="116" height="53" as="geometry">
                        <mxRectangle width="116" height="53" as="alternateBounds"/>
                    </mxGeometry>
                </mxCell>
                <mxCell id="47" value="carnivore" style="shape=partialRectangle;html=1;whiteSpace=wrap;connectable=0;fillColor=none;top=0;left=0;bottom=0;right=0;overflow=hidden;" vertex="1" parent="43">
                    <mxGeometry x="345" width="115" height="53" as="geometry">
                        <mxRectangle width="115" height="53" as="alternateBounds"/>
                    </mxGeometry>
                </mxCell>
            </root>
        </mxGraphModel>
    </diagram>
</mxfile>